# xmcd
#
# Track frame offsets:
#	150
#	13346
#	25072
#	37684
#	50306
#	62768
#	74786
#	86957
#	100288
#	112941
#	125696
#	138334
#	150942
#	163356
#	176683
#	189204
#	202070
#	214492
#
# Disc length: 3032 seconds
#
# Revision: 0
# Processed by: cddbd v1.5.1PL0 Copyright (c) Steve Scherf et al.
# Submitted via: dBpowerAMP V4.0
#
DISCID=050bd612
DTITLE=Hank Williams - Hank Williams 
DYEAR=1900
DGENRE=Country
TTITLE0=Long gone lonesome blues
TTITLE1=A mansion on the hill 
TTITLE2=Honky Tonkin
TTITLE3=Move it over
TTITLE4=My love for you (has just turned to hate)
TTITLE5=I'm satisfied with you 
TTITLE6=I'll be a batchelor
TTITLE7=Calling you
TTITLE8=I saw the light
TTITLE9=Rootie Tootie
TTITLE10=My sweet love aint around
TTITLE11=Fly trouble
TTITLE12=Lovesick Blues
TTITLE13=On the banks of the old pontchartrain
TTITLE14=(Last night) I heard you crying in your sleep
TTITLE15=Pan American
TTITLE16=The blues come around 
TTITLE17=I don't care (If tomorrow never comes)
EXTD=Hank Williams
EXTT0=
EXTT1=
EXTT2=
EXTT3=
EXTT4=
EXTT5=
EXTT6=
EXTT7=
EXTT8=
EXTT9=
EXTT10=
EXTT11=
EXTT12=
EXTT13=
EXTT14=
EXTT15=
EXTT16=
EXTT17=
PLAYORDER=
